# Blender v2.79 (sub 0) OBJ File: 'halfSphere.blend'
# www.blender.org
o Sphere
v 0.000000 0.980785 -0.195090
v 0.000000 0.923880 -0.382683
v 0.000000 0.831470 -0.555570
v 0.000000 0.707107 -0.707107
v 0.000000 0.555570 -0.831470
v 0.000000 0.382683 -0.923880
v 0.000000 0.195090 -0.980785
v 0.000000 0.000000 -1.000000
v 0.038060 0.980785 -0.191342
v 0.074658 0.923880 -0.375330
v 0.108386 0.831470 -0.544895
v 0.137950 0.707107 -0.693520
v 0.162212 0.555570 -0.815493
v 0.180240 0.382683 -0.906127
v 0.191342 0.195090 -0.961940
v 0.195090 0.000000 -0.980785
v 0.074658 0.980785 -0.180240
v 0.146447 0.923880 -0.353553
v 0.212608 0.831470 -0.513280
v 0.270598 0.707107 -0.653281
v 0.318190 0.555570 -0.768178
v 0.353553 0.382683 -0.853553
v 0.375330 0.195090 -0.906127
v 0.382684 0.000000 -0.923879
v 0.108387 0.980785 -0.162212
v 0.212608 0.923880 -0.318190
v 0.308658 0.831470 -0.461940
v 0.392848 0.707107 -0.587938
v 0.461940 0.555570 -0.691342
v 0.513280 0.382683 -0.768178
v 0.544895 0.195090 -0.815493
v 0.555570 0.000000 -0.831469
v 0.137950 0.980785 -0.137950
v 0.270598 0.923880 -0.270598
v 0.392848 0.831470 -0.392847
v 0.500000 0.707107 -0.500000
v 0.587938 0.555570 -0.587938
v 0.653282 0.382683 -0.653281
v 0.693520 0.195090 -0.693520
v 0.707107 0.000000 -0.707107
v 0.162212 0.980785 -0.108386
v 0.318190 0.923880 -0.212607
v 0.461940 0.831470 -0.308658
v 0.587938 0.707107 -0.392847
v 0.691342 0.555570 -0.461940
v 0.768178 0.382683 -0.513280
v 0.815493 0.195090 -0.544895
v 0.831470 0.000000 -0.555570
v 0.180240 0.980785 -0.074658
v 0.353554 0.923880 -0.146446
v 0.513280 0.831470 -0.212607
v 0.653282 0.707107 -0.270598
v 0.768178 0.555570 -0.318189
v 0.853554 0.382683 -0.353553
v 0.906128 0.195090 -0.375330
v 0.923880 0.000000 -0.382683
v 0.191342 0.980785 -0.038060
v 0.375331 0.923880 -0.074658
v 0.544895 0.831470 -0.108386
v 0.693520 0.707107 -0.137949
v 0.815493 0.555570 -0.162211
v 0.906128 0.382683 -0.180240
v 0.961940 0.195090 -0.191341
v 0.980785 0.000000 -0.195090
v 0.195091 0.980785 0.000000
v 0.382684 0.923880 0.000000
v 0.555570 0.831470 0.000000
v 0.707107 0.707107 0.000000
v 0.831470 0.555570 0.000000
v 0.923880 0.382683 0.000000
v 0.980785 0.195090 0.000000
v 1.000000 0.000000 0.000000
v 0.191342 0.980785 0.038061
v 0.375331 0.923880 0.074658
v 0.544895 0.831470 0.108387
v 0.693520 0.707107 0.137950
v 0.815493 0.555570 0.162212
v 0.906128 0.382683 0.180240
v 0.961940 0.195090 0.191342
v 0.980785 0.000000 0.195091
v 0.180240 0.980785 0.074658
v 0.353554 0.923880 0.146447
v 0.513280 0.831470 0.212608
v 0.653282 0.707107 0.270598
v 0.768178 0.555570 0.318190
v 0.853554 0.382683 0.353554
v 0.906127 0.195090 0.375331
v 0.923880 0.000000 0.382684
v 0.162212 0.980785 0.108387
v 0.318190 0.923880 0.212608
v 0.461940 0.831470 0.308659
v 0.587938 0.707107 0.392848
v 0.691342 0.555570 0.461940
v 0.768178 0.382683 0.513280
v 0.815493 0.195090 0.544895
v 0.831470 0.000000 0.555571
v 0.137950 0.980785 0.137950
v 0.270598 0.923880 0.270599
v 0.392848 0.831470 0.392848
v 0.500000 0.707107 0.500000
v 0.587938 0.555570 0.587938
v 0.653282 0.382683 0.653282
v 0.693520 0.195090 0.693520
v 0.707107 0.000000 0.707107
v 0.108386 0.980785 0.162212
v 0.212608 0.923880 0.318190
v 0.308658 0.831470 0.461940
v 0.392848 0.707107 0.587938
v 0.461940 0.555570 0.691342
v 0.513280 0.382683 0.768178
v 0.544895 0.195090 0.815493
v 0.555570 0.000000 0.831470
v 0.074658 0.980785 0.180240
v 0.146447 0.923880 0.353554
v 0.212608 0.831470 0.513280
v 0.270598 0.707107 0.653282
v 0.318190 0.555570 0.768178
v 0.353553 0.382683 0.853554
v 0.375330 0.195090 0.906128
v 0.382683 0.000000 0.923880
v 0.038060 0.980785 0.191342
v 0.074658 0.923880 0.375331
v 0.108386 0.831470 0.544896
v 0.137950 0.707107 0.693520
v 0.162212 0.555570 0.815493
v 0.180240 0.382683 0.906128
v 0.191342 0.195090 0.961940
v 0.195090 0.000000 0.980786
v -0.000000 0.980785 0.195091
v 0.000000 0.923880 0.382684
v 0.000000 0.831470 0.555571
v -0.000000 0.707107 0.707107
v -0.000000 0.555570 0.831470
v 0.000000 0.382683 0.923880
v -0.000000 0.195090 0.980785
v -0.000000 0.000000 1.000000
v -0.038060 0.980785 0.191342
v -0.074658 0.923880 0.375331
v -0.108386 0.831470 0.544896
v -0.137950 0.707107 0.693520
v -0.162212 0.555570 0.815493
v -0.180240 0.382683 0.906128
v -0.191342 0.195090 0.961940
v -0.195090 0.000000 0.980786
v -0.074658 0.980785 0.180240
v -0.146447 0.923880 0.353554
v -0.212608 0.831470 0.513280
v -0.270598 0.707107 0.653282
v -0.318190 0.555570 0.768178
v -0.353553 0.382683 0.853554
v -0.375330 0.195090 0.906127
v -0.382684 0.000000 0.923880
v -0.108386 0.980785 0.162212
v -0.212608 0.923880 0.318190
v -0.308658 0.831470 0.461940
v -0.392847 0.707107 0.587938
v -0.461940 0.555570 0.691342
v -0.513280 0.382683 0.768178
v -0.544895 0.195090 0.815493
v -0.555570 0.000000 0.831470
v -0.000000 1.000000 0.000001
v -0.137950 0.980785 0.137950
v -0.270598 0.923880 0.270598
v -0.392848 0.831470 0.392848
v -0.500000 0.707107 0.500000
v -0.587938 0.555570 0.587938
v -0.653281 0.382683 0.653282
v -0.693520 0.195090 0.693520
v -0.707107 0.000000 0.707107
v -0.162212 0.980785 0.108387
v -0.318190 0.923880 0.212608
v -0.461940 0.831470 0.308659
v -0.587938 0.707107 0.392848
v -0.691342 0.555570 0.461940
v -0.768178 0.382683 0.513280
v -0.815493 0.195090 0.544895
v -0.831470 0.000000 0.555570
v -0.180240 0.980785 0.074658
v -0.353553 0.923880 0.146447
v -0.513280 0.831470 0.212608
v -0.653281 0.707107 0.270598
v -0.768177 0.555570 0.318190
v -0.853553 0.382683 0.353554
v -0.906127 0.195090 0.375330
v -0.923880 0.000000 0.382684
v -0.191342 0.980785 0.038061
v -0.375330 0.923880 0.074658
v -0.544895 0.831470 0.108387
v -0.693520 0.707107 0.137950
v -0.815493 0.555570 0.162212
v -0.906127 0.382683 0.180240
v -0.961939 0.195090 0.191342
v -0.980785 0.000000 0.195090
v -0.195090 0.980785 0.000000
v -0.382683 0.923880 0.000000
v -0.555570 0.831470 0.000000
v -0.707107 0.707107 0.000000
v -0.831469 0.555570 0.000000
v -0.923879 0.382683 0.000000
v -0.980785 0.195090 0.000000
v -1.000000 0.000000 0.000000
v -0.191342 0.980785 -0.038060
v -0.375330 0.923880 -0.074658
v -0.544895 0.831470 -0.108386
v -0.693520 0.707107 -0.137949
v -0.815493 0.555570 -0.162211
v -0.906127 0.382683 -0.180240
v -0.961939 0.195090 -0.191342
v -0.980785 0.000000 -0.195090
v -0.180240 0.980785 -0.074658
v -0.353553 0.923880 -0.146446
v -0.513280 0.831470 -0.212607
v -0.653281 0.707107 -0.270598
v -0.768177 0.555570 -0.318189
v -0.853553 0.382683 -0.353553
v -0.906127 0.195090 -0.375330
v -0.923879 0.000000 -0.382683
v -0.162212 0.980785 -0.108386
v -0.318190 0.923880 -0.212607
v -0.461940 0.831470 -0.308658
v -0.587938 0.707107 -0.392847
v -0.691341 0.555570 -0.461939
v -0.768178 0.382683 -0.513280
v -0.815493 0.195090 -0.544895
v -0.831469 0.000000 -0.555570
v -0.137950 0.980785 -0.137949
v -0.270598 0.923880 -0.270598
v -0.392847 0.831470 -0.392847
v -0.500000 0.707107 -0.500000
v -0.587937 0.555570 -0.587937
v -0.653281 0.382683 -0.653281
v -0.693519 0.195090 -0.693519
v -0.707106 0.000000 -0.707106
v -0.108386 0.980785 -0.162211
v -0.212607 0.923880 -0.318189
v -0.308658 0.831470 -0.461939
v -0.392847 0.707107 -0.587937
v -0.461939 0.555570 -0.691341
v -0.513280 0.382683 -0.768177
v -0.544895 0.195090 -0.815492
v -0.555570 0.000000 -0.831469
v -0.074658 0.980785 -0.180240
v -0.146447 0.923880 -0.353553
v -0.212607 0.831470 -0.513280
v -0.270598 0.707107 -0.653281
v -0.318189 0.555570 -0.768177
v -0.353553 0.382683 -0.853553
v -0.375330 0.195090 -0.906127
v -0.382683 0.000000 -0.923879
v -0.038060 0.980785 -0.191342
v -0.074658 0.923880 -0.375330
v -0.108386 0.831470 -0.544895
v -0.137950 0.707107 -0.693520
v -0.162211 0.555570 -0.815492
v -0.180240 0.382683 -0.906127
v -0.191341 0.195090 -0.961939
v -0.195090 0.000000 -0.980785
vn 0.0464 0.8810 -0.4709
vn 0.0624 0.7715 -0.6332
vn 0.0759 0.6326 -0.7708
vn 0.0865 0.4696 -0.8786
vn 0.0938 0.2890 -0.9527
vn 0.0975 0.0975 -0.9904
vn 0.0097 0.9951 -0.0980
vn 0.0286 0.9565 -0.2902
vn 0.0846 0.9565 -0.2790
vn 0.1374 0.8810 -0.4528
vn 0.1847 0.7715 -0.6088
vn 0.2248 0.6326 -0.7412
vn 0.2563 0.4696 -0.8448
vn 0.2779 0.2890 -0.9161
vn 0.2889 0.0975 -0.9524
vn 0.0286 0.9951 -0.0942
vn 0.4162 0.4696 -0.7786
vn 0.4513 0.2890 -0.8443
vn 0.4691 0.0975 -0.8777
vn 0.0464 0.9951 -0.0869
vn 0.1374 0.9565 -0.2571
vn 0.2230 0.8810 -0.4173
vn 0.2999 0.7715 -0.5611
vn 0.3651 0.6326 -0.6831
vn 0.1850 0.9565 -0.2254
vn 0.3002 0.8810 -0.3658
vn 0.4036 0.7715 -0.4918
vn 0.4913 0.6326 -0.5987
vn 0.5601 0.4696 -0.6825
vn 0.6073 0.2890 -0.7400
vn 0.6314 0.0976 -0.7693
vn 0.0625 0.9951 -0.0761
vn 0.6825 0.4696 -0.5601
vn 0.7400 0.2890 -0.6073
vn 0.7693 0.0975 -0.6314
vn 0.0761 0.9951 -0.0625
vn 0.2254 0.9565 -0.1850
vn 0.3658 0.8810 -0.3002
vn 0.4918 0.7715 -0.4036
vn 0.5987 0.6326 -0.4913
vn 0.4173 0.8810 -0.2231
vn 0.5611 0.7715 -0.2999
vn 0.6831 0.6326 -0.3651
vn 0.7786 0.4696 -0.4162
vn 0.8443 0.2890 -0.4513
vn 0.8777 0.0976 -0.4691
vn 0.0869 0.9951 -0.0464
vn 0.2571 0.9565 -0.1374
vn 0.9161 0.2890 -0.2779
vn 0.9524 0.0976 -0.2889
vn 0.0942 0.9951 -0.0286
vn 0.2790 0.9565 -0.0846
vn 0.4528 0.8810 -0.1374
vn 0.6088 0.7715 -0.1847
vn 0.7412 0.6326 -0.2248
vn 0.8448 0.4696 -0.2563
vn 0.6332 0.7715 -0.0624
vn 0.7708 0.6326 -0.0759
vn 0.8786 0.4696 -0.0865
vn 0.9527 0.2890 -0.0938
vn 0.9904 0.0976 -0.0975
vn 0.0980 0.9951 -0.0097
vn 0.2902 0.9565 -0.0286
vn 0.4709 0.8810 -0.0464
vn 0.9904 0.0976 0.0975
vn 0.0980 0.9951 0.0097
vn 0.2902 0.9565 0.0286
vn 0.4709 0.8810 0.0464
vn 0.6332 0.7715 0.0624
vn 0.7708 0.6326 0.0759
vn 0.8786 0.4696 0.0865
vn 0.9527 0.2890 0.0938
vn 0.6088 0.7715 0.1847
vn 0.7412 0.6326 0.2248
vn 0.8448 0.4696 0.2563
vn 0.9161 0.2890 0.2779
vn 0.9524 0.0976 0.2889
vn 0.0942 0.9951 0.0286
vn 0.2790 0.9565 0.0846
vn 0.4528 0.8810 0.1374
vn 0.8777 0.0976 0.4691
vn 0.0869 0.9951 0.0464
vn 0.2571 0.9565 0.1374
vn 0.4173 0.8810 0.2231
vn 0.5611 0.7715 0.2999
vn 0.6831 0.6326 0.3651
vn 0.7786 0.4696 0.4162
vn 0.8443 0.2890 0.4513
vn 0.5987 0.6326 0.4913
vn 0.6825 0.4696 0.5601
vn 0.7400 0.2890 0.6073
vn 0.7693 0.0976 0.6314
vn 0.0761 0.9951 0.0625
vn 0.2254 0.9565 0.1850
vn 0.3658 0.8810 0.3002
vn 0.4918 0.7715 0.4036
vn 0.0625 0.9951 0.0761
vn 0.1850 0.9565 0.2254
vn 0.3002 0.8810 0.3658
vn 0.4036 0.7715 0.4918
vn 0.4913 0.6326 0.5987
vn 0.5601 0.4696 0.6825
vn 0.6073 0.2890 0.7400
vn 0.6314 0.0976 0.7693
vn 0.3651 0.6326 0.6831
vn 0.4162 0.4696 0.7786
vn 0.4513 0.2890 0.8443
vn 0.4691 0.0976 0.8777
vn 0.0464 0.9951 0.0869
vn 0.1374 0.9565 0.2571
vn 0.2230 0.8810 0.4173
vn 0.2999 0.7715 0.5611
vn 0.0846 0.9565 0.2790
vn 0.1374 0.8810 0.4528
vn 0.1847 0.7715 0.6088
vn 0.2248 0.6326 0.7412
vn 0.2563 0.4696 0.8448
vn 0.2779 0.2890 0.9161
vn 0.2889 0.0976 0.9524
vn 0.0286 0.9951 0.0942
vn 0.0865 0.4696 0.8786
vn 0.0938 0.2890 0.9527
vn 0.0975 0.0976 0.9904
vn 0.0097 0.9951 0.0980
vn 0.0286 0.9565 0.2902
vn 0.0464 0.8810 0.4709
vn 0.0624 0.7715 0.6332
vn 0.0759 0.6326 0.7708
vn -0.0464 0.8810 0.4709
vn -0.0624 0.7715 0.6332
vn -0.0759 0.6326 0.7708
vn -0.0865 0.4696 0.8786
vn -0.0938 0.2890 0.9527
vn -0.0976 0.0976 0.9904
vn -0.0097 0.9951 0.0980
vn -0.0286 0.9565 0.2902
vn -0.2779 0.2890 0.9161
vn -0.2889 0.0976 0.9524
vn -0.0286 0.9951 0.0942
vn -0.0846 0.9565 0.2790
vn -0.1374 0.8810 0.4528
vn -0.1847 0.7715 0.6088
vn -0.2248 0.6326 0.7412
vn -0.2563 0.4696 0.8448
vn -0.2230 0.8810 0.4173
vn -0.2999 0.7715 0.5611
vn -0.3651 0.6326 0.6831
vn -0.4162 0.4696 0.7786
vn -0.4513 0.2890 0.8443
vn -0.4691 0.0976 0.8777
vn -0.0464 0.9951 0.0869
vn -0.1374 0.9565 0.2571
vn -0.6073 0.2890 0.7400
vn -0.6314 0.0976 0.7693
vn -0.0625 0.9951 0.0761
vn -0.1850 0.9565 0.2254
vn -0.3002 0.8810 0.3658
vn -0.4036 0.7715 0.4918
vn -0.4913 0.6326 0.5987
vn -0.5601 0.4696 0.6825
vn -0.4918 0.7715 0.4036
vn -0.5987 0.6326 0.4913
vn -0.6825 0.4696 0.5601
vn -0.7400 0.2890 0.6073
vn -0.7693 0.0976 0.6314
vn -0.0761 0.9951 0.0625
vn -0.2254 0.9565 0.1850
vn -0.3658 0.8810 0.3002
vn -0.8777 0.0976 0.4691
vn -0.0869 0.9951 0.0464
vn -0.2571 0.9565 0.1374
vn -0.4173 0.8810 0.2231
vn -0.5611 0.7715 0.2999
vn -0.6831 0.6326 0.3651
vn -0.7786 0.4696 0.4162
vn -0.8443 0.2890 0.4513
vn -0.6088 0.7715 0.1847
vn -0.7412 0.6326 0.2248
vn -0.8448 0.4696 0.2563
vn -0.9161 0.2890 0.2779
vn -0.9524 0.0976 0.2889
vn -0.0942 0.9951 0.0286
vn -0.2790 0.9565 0.0846
vn -0.4528 0.8810 0.1374
vn -0.9904 0.0976 0.0975
vn -0.0980 0.9951 0.0097
vn -0.2902 0.9565 0.0286
vn -0.4709 0.8810 0.0464
vn -0.6332 0.7715 0.0624
vn -0.7708 0.6326 0.0759
vn -0.8786 0.4696 0.0865
vn -0.9527 0.2890 0.0938
vn -0.7708 0.6326 -0.0759
vn -0.8786 0.4696 -0.0865
vn -0.9527 0.2890 -0.0938
vn -0.9904 0.0976 -0.0976
vn -0.0980 0.9951 -0.0097
vn -0.2902 0.9565 -0.0286
vn -0.4709 0.8810 -0.0464
vn -0.6332 0.7715 -0.0624
vn -0.2790 0.9565 -0.0846
vn -0.4528 0.8810 -0.1374
vn -0.6088 0.7715 -0.1847
vn -0.7412 0.6326 -0.2248
vn -0.8448 0.4696 -0.2563
vn -0.9161 0.2890 -0.2779
vn -0.9524 0.0976 -0.2889
vn -0.0942 0.9951 -0.0286
vn -0.7786 0.4696 -0.4162
vn -0.8443 0.2890 -0.4513
vn -0.8777 0.0976 -0.4691
vn -0.0869 0.9951 -0.0464
vn -0.2571 0.9565 -0.1374
vn -0.4173 0.8810 -0.2231
vn -0.5611 0.7715 -0.2999
vn -0.6831 0.6326 -0.3651
vn -0.2254 0.9565 -0.1850
vn -0.3658 0.8810 -0.3002
vn -0.4918 0.7715 -0.4036
vn -0.5987 0.6326 -0.4913
vn -0.6825 0.4696 -0.5601
vn -0.7400 0.2890 -0.6073
vn -0.7693 0.0976 -0.6314
vn -0.0761 0.9951 -0.0625
vn -0.5601 0.4696 -0.6825
vn -0.6073 0.2890 -0.7400
vn -0.6314 0.0976 -0.7693
vn -0.0625 0.9951 -0.0761
vn -0.1850 0.9565 -0.2254
vn -0.3002 0.8810 -0.3658
vn -0.4036 0.7715 -0.4918
vn -0.4913 0.6326 -0.5987
vn -0.2230 0.8810 -0.4173
vn -0.2999 0.7715 -0.5611
vn -0.3651 0.6326 -0.6831
vn -0.4162 0.4696 -0.7786
vn -0.4513 0.2890 -0.8443
vn -0.4691 0.0976 -0.8777
vn -0.0464 0.9951 -0.0869
vn -0.1374 0.9565 -0.2571
vn -0.2779 0.2890 -0.9161
vn -0.2889 0.0976 -0.9524
vn -0.0286 0.9951 -0.0942
vn -0.0846 0.9565 -0.2790
vn -0.1374 0.8810 -0.4528
vn -0.1847 0.7715 -0.6088
vn -0.2248 0.6326 -0.7412
vn -0.2563 0.4696 -0.8448
vn -0.0464 0.8810 -0.4709
vn -0.0624 0.7715 -0.6332
vn -0.0759 0.6326 -0.7708
vn -0.0865 0.4696 -0.8786
vn -0.0938 0.2890 -0.9527
vn 0.0000 -1.0000 -0.0000
vn -0.0976 0.0976 -0.9904
vn -0.0097 0.9951 -0.0980
vn -0.0286 0.9565 -0.2902
s off
f 3//1 2//1 10//1 11//1
f 4//2 3//2 11//2 12//2
f 5//3 4//3 12//3 13//3
f 6//4 5//4 13//4 14//4
f 7//5 6//5 14//5 15//5
f 8//6 7//6 15//6 16//6
f 1//7 161//7 9//7
f 2//8 1//8 9//8 10//8
f 10//9 9//9 17//9 18//9
f 11//10 10//10 18//10 19//10
f 12//11 11//11 19//11 20//11
f 13//12 12//12 20//12 21//12
f 14//13 13//13 21//13 22//13
f 15//14 14//14 22//14 23//14
f 16//15 15//15 23//15 24//15
f 9//16 161//16 17//16
f 22//17 21//17 29//17 30//17
f 23//18 22//18 30//18 31//18
f 24//19 23//19 31//19 32//19
f 17//20 161//20 25//20
f 18//21 17//21 25//21 26//21
f 19//22 18//22 26//22 27//22
f 20//23 19//23 27//23 28//23
f 21//24 20//24 28//24 29//24
f 26//25 25//25 33//25 34//25
f 27//26 26//26 34//26 35//26
f 28//27 27//27 35//27 36//27
f 29//28 28//28 36//28 37//28
f 30//29 29//29 37//29 38//29
f 31//30 30//30 38//30 39//30
f 32//31 31//31 39//31 40//31
f 25//32 161//32 33//32
f 38//33 37//33 45//33 46//33
f 39//34 38//34 46//34 47//34
f 40//35 39//35 47//35 48//35
f 33//36 161//36 41//36
f 34//37 33//37 41//37 42//37
f 35//38 34//38 42//38 43//38
f 36//39 35//39 43//39 44//39
f 37//40 36//40 44//40 45//40
f 43//41 42//41 50//41 51//41
f 44//42 43//42 51//42 52//42
f 45//43 44//43 52//43 53//43
f 46//44 45//44 53//44 54//44
f 47//45 46//45 54//45 55//45
f 48//46 47//46 55//46 56//46
f 41//47 161//47 49//47
f 42//48 41//48 49//48 50//48
f 55//49 54//49 62//49 63//49
f 56//50 55//50 63//50 64//50
f 49//51 161//51 57//51
f 50//52 49//52 57//52 58//52
f 51//53 50//53 58//53 59//53
f 52//54 51//54 59//54 60//54
f 53//55 52//55 60//55 61//55
f 54//56 53//56 61//56 62//56
f 60//57 59//57 67//57 68//57
f 61//58 60//58 68//58 69//58
f 62//59 61//59 69//59 70//59
f 63//60 62//60 70//60 71//60
f 64//61 63//61 71//61 72//61
f 57//62 161//62 65//62
f 58//63 57//63 65//63 66//63
f 59//64 58//64 66//64 67//64
f 72//65 71//65 79//65 80//65
f 65//66 161//66 73//66
f 66//67 65//67 73//67 74//67
f 67//68 66//68 74//68 75//68
f 68//69 67//69 75//69 76//69
f 69//70 68//70 76//70 77//70
f 70//71 69//71 77//71 78//71
f 71//72 70//72 78//72 79//72
f 76//73 75//73 83//73 84//73
f 77//74 76//74 84//74 85//74
f 78//75 77//75 85//75 86//75
f 79//76 78//76 86//76 87//76
f 80//77 79//77 87//77 88//77
f 73//78 161//78 81//78
f 74//79 73//79 81//79 82//79
f 75//80 74//80 82//80 83//80
f 88//81 87//81 95//81 96//81
f 81//82 161//82 89//82
f 82//83 81//83 89//83 90//83
f 83//84 82//84 90//84 91//84
f 84//85 83//85 91//85 92//85
f 85//86 84//86 92//86 93//86
f 86//87 85//87 93//87 94//87
f 87//88 86//88 94//88 95//88
f 93//89 92//89 100//89 101//89
f 94//90 93//90 101//90 102//90
f 95//91 94//91 102//91 103//91
f 96//92 95//92 103//92 104//92
f 89//93 161//93 97//93
f 90//94 89//94 97//94 98//94
f 91//95 90//95 98//95 99//95
f 92//96 91//96 99//96 100//96
f 97//97 161//97 105//97
f 98//98 97//98 105//98 106//98
f 99//99 98//99 106//99 107//99
f 100//100 99//100 107//100 108//100
f 101//101 100//101 108//101 109//101
f 102//102 101//102 109//102 110//102
f 103//103 102//103 110//103 111//103
f 104//104 103//104 111//104 112//104
f 109//105 108//105 116//105 117//105
f 110//106 109//106 117//106 118//106
f 111//107 110//107 118//107 119//107
f 112//108 111//108 119//108 120//108
f 105//109 161//109 113//109
f 106//110 105//110 113//110 114//110
f 107//111 106//111 114//111 115//111
f 108//112 107//112 115//112 116//112
f 114//113 113//113 121//113 122//113
f 115//114 114//114 122//114 123//114
f 116//115 115//115 123//115 124//115
f 117//116 116//116 124//116 125//116
f 118//117 117//117 125//117 126//117
f 119//118 118//118 126//118 127//118
f 120//119 119//119 127//119 128//119
f 113//120 161//120 121//120
f 126//121 125//121 133//121 134//121
f 127//122 126//122 134//122 135//122
f 128//123 127//123 135//123 136//123
f 121//124 161//124 129//124
f 122//125 121//125 129//125 130//125
f 123//126 122//126 130//126 131//126
f 124//127 123//127 131//127 132//127
f 125//128 124//128 132//128 133//128
f 131//129 130//129 138//129 139//129
f 132//130 131//130 139//130 140//130
f 133//131 132//131 140//131 141//131
f 134//132 133//132 141//132 142//132
f 135//133 134//133 142//133 143//133
f 136//134 135//134 143//134 144//134
f 129//135 161//135 137//135
f 130//136 129//136 137//136 138//136
f 143//137 142//137 150//137 151//137
f 144//138 143//138 151//138 152//138
f 137//139 161//139 145//139
f 138//140 137//140 145//140 146//140
f 139//141 138//141 146//141 147//141
f 140//142 139//142 147//142 148//142
f 141//143 140//143 148//143 149//143
f 142//144 141//144 149//144 150//144
f 147//145 146//145 154//145 155//145
f 148//146 147//146 155//146 156//146
f 149//147 148//147 156//147 157//147
f 150//148 149//148 157//148 158//148
f 151//149 150//149 158//149 159//149
f 152//150 151//150 159//150 160//150
f 145//151 161//151 153//151
f 146//152 145//152 153//152 154//152
f 159//153 158//153 167//153 168//153
f 160//154 159//154 168//154 169//154
f 153//155 161//155 162//155
f 154//156 153//156 162//156 163//156
f 155//157 154//157 163//157 164//157
f 156//158 155//158 164//158 165//158
f 157//159 156//159 165//159 166//159
f 158//160 157//160 166//160 167//160
f 165//161 164//161 172//161 173//161
f 166//162 165//162 173//162 174//162
f 167//163 166//163 174//163 175//163
f 168//164 167//164 175//164 176//164
f 169//165 168//165 176//165 177//165
f 162//166 161//166 170//166
f 163//167 162//167 170//167 171//167
f 164//168 163//168 171//168 172//168
f 177//169 176//169 184//169 185//169
f 170//170 161//170 178//170
f 171//171 170//171 178//171 179//171
f 172//172 171//172 179//172 180//172
f 173//173 172//173 180//173 181//173
f 174//174 173//174 181//174 182//174
f 175//175 174//175 182//175 183//175
f 176//176 175//176 183//176 184//176
f 181//177 180//177 188//177 189//177
f 182//178 181//178 189//178 190//178
f 183//179 182//179 190//179 191//179
f 184//180 183//180 191//180 192//180
f 185//181 184//181 192//181 193//181
f 178//182 161//182 186//182
f 179//183 178//183 186//183 187//183
f 180//184 179//184 187//184 188//184
f 193//185 192//185 200//185 201//185
f 186//186 161//186 194//186
f 187//187 186//187 194//187 195//187
f 188//188 187//188 195//188 196//188
f 189//189 188//189 196//189 197//189
f 190//190 189//190 197//190 198//190
f 191//191 190//191 198//191 199//191
f 192//192 191//192 199//192 200//192
f 198//193 197//193 205//193 206//193
f 199//194 198//194 206//194 207//194
f 200//195 199//195 207//195 208//195
f 201//196 200//196 208//196 209//196
f 194//197 161//197 202//197
f 195//198 194//198 202//198 203//198
f 196//199 195//199 203//199 204//199
f 197//200 196//200 204//200 205//200
f 203//201 202//201 210//201 211//201
f 204//202 203//202 211//202 212//202
f 205//203 204//203 212//203 213//203
f 206//204 205//204 213//204 214//204
f 207//205 206//205 214//205 215//205
f 208//206 207//206 215//206 216//206
f 209//207 208//207 216//207 217//207
f 202//208 161//208 210//208
f 215//209 214//209 222//209 223//209
f 216//210 215//210 223//210 224//210
f 217//211 216//211 224//211 225//211
f 210//212 161//212 218//212
f 211//213 210//213 218//213 219//213
f 212//214 211//214 219//214 220//214
f 213//215 212//215 220//215 221//215
f 214//216 213//216 221//216 222//216
f 219//217 218//217 226//217 227//217
f 220//218 219//218 227//218 228//218
f 221//219 220//219 228//219 229//219
f 222//220 221//220 229//220 230//220
f 223//221 222//221 230//221 231//221
f 224//222 223//222 231//222 232//222
f 225//223 224//223 232//223 233//223
f 218//224 161//224 226//224
f 231//225 230//225 238//225 239//225
f 232//226 231//226 239//226 240//226
f 233//227 232//227 240//227 241//227
f 226//228 161//228 234//228
f 227//229 226//229 234//229 235//229
f 228//230 227//230 235//230 236//230
f 229//231 228//231 236//231 237//231
f 230//232 229//232 237//232 238//232
f 236//233 235//233 243//233 244//233
f 237//234 236//234 244//234 245//234
f 238//235 237//235 245//235 246//235
f 239//236 238//236 246//236 247//236
f 240//237 239//237 247//237 248//237
f 241//238 240//238 248//238 249//238
f 234//239 161//239 242//239
f 235//240 234//240 242//240 243//240
f 248//241 247//241 255//241 256//241
f 249//242 248//242 256//242 257//242
f 242//243 161//243 250//243
f 243//244 242//244 250//244 251//244
f 244//245 243//245 251//245 252//245
f 245//246 244//246 252//246 253//246
f 246//247 245//247 253//247 254//247
f 247//248 246//248 254//248 255//248
f 252//249 251//249 2//249 3//249
f 253//250 252//250 3//250 4//250
f 254//251 253//251 4//251 5//251
f 255//252 254//252 5//252 6//252
f 256//253 255//253 6//253 7//253
f 249//254 257//254 8//254 16//254 24//254 32//254 40//254 48//254 56//254 64//254 72//254 80//254 88//254 96//254 104//254 112//254 120//254 128//254 136//254 144//254 152//254 160//254 169//254 177//254 185//254 193//254 201//254 209//254 217//254 225//254 233//254 241//254
f 257//255 256//255 7//255 8//255
f 250//256 161//256 1//256
f 251//257 250//257 1//257 2//257
